<?xml version="1.0" encoding="UTF-8" standalone="no"?>
<!DOCTYPE svg PUBLIC "-//W3C//DTD SVG 1.1//EN" "http://www.w3.org/Graphics/SVG/1.1/DTD/svg11.dtd">
<svg xmlns="http://www.w3.org/2000/svg" version="1.1" viewBox="0.00 0.00 497.00 164.00">
<g stroke-width="2.00" fill="none" stroke-linecap="butt">
<path stroke="#5da4e2" vector-effect="non-scaling-stroke" d="
  M 112.93 84.49
  Q 112.18 84.02 111.12 84.16
  Q 110.65 84.22 110.34 83.85
  Q 109.60 82.98 108.54 83.61"
/>
<path stroke="#5da4e2" vector-effect="non-scaling-stroke" d="
  M 84.01 70.49
  Q 80.72 73.04 72.96 72.21"
/>
<path stroke="#5da4e2" vector-effect="non-scaling-stroke" d="
  M 64.97 74.67
  L 48.45 74.08"
/>
<path stroke="#5da4e2" vector-effect="non-scaling-stroke" d="
  M 24.85 81.67
  L 19.33 81.26
  Q 18.83 81.23 18.49 81.59
  Q 17.50 82.65 17.04 81.55"
/>
</g>
<path fill="#6990da" d="
  M 112.93 84.49
  Q 112.18 84.02 111.12 84.16
  Q 110.65 84.22 110.34 83.85
  Q 109.60 82.98 108.54 83.61
  L 99.30 70.40
  Q 99.00 69.97 98.49 69.99
  L 84.01 70.49
  Q 80.72 73.04 72.96 72.21
  L 76.99 62.33
  Q 77.26 61.66 76.55 61.67
  L 70.94 61.70
  Q 70.31 61.70 70.07 62.28
  L 64.97 74.67
  L 48.45 74.08
  L 51.97 70.66
  Q 52.66 69.99 51.69 69.99
  L 37.97 69.98
  A 2.25 2.23 22.8 0 0 36.41 70.61
  L 24.85 81.67
  L 19.33 81.26
  Q 18.83 81.23 18.49 81.59
  Q 17.50 82.65 17.04 81.55
  Q 17.06 66.11 17.01 50.66
  Q 16.99 45.16 18.00 43.43
  C 19.67 40.59 22.78 38.08 26.21 38.08
  Q 64.43 38.02 103.02 38.07
  C 106.81 38.07 110.58 40.49 112.05 43.90
  Q 112.92 45.92 112.93 49.91
  Q 112.99 67.25 112.93 84.49
  Z"
/>
<ellipse fill="#4c6cc0" cx="0.00" cy="0.00" transform="translate(163.87,46.16) rotate(-0.7)" rx="5.36" ry="4.88"/>
<path fill="#1f9be5" d="
  M 216.96 65.69
  L 225.31 54.59
  A 0.30 0.30 0.0 0 1 225.55 54.47
  L 235.93 54.28
  A 0.30 0.30 0.0 0 1 236.16 54.77
  L 224.42 68.96
  A 0.30 0.30 0.0 0 0 224.42 69.34
  L 236.32 83.48
  A 0.30 0.30 0.0 0 1 236.09 83.97
  L 225.78 84.00
  A 0.30 0.30 0.0 0 1 225.54 83.88
  L 216.92 72.14
  A 0.30 0.30 0.0 0 0 216.38 72.32
  L 216.38 83.69
  A 0.30 0.30 0.0 0 1 216.08 83.99
  L 207.54 83.98
  A 0.30 0.30 0.0 0 1 207.24 83.68
  L 207.36 44.99
  A 0.30 0.30 0.0 0 1 207.66 44.69
  L 216.03 44.72
  A 0.30 0.30 0.0 0 1 216.33 45.02
  L 216.42 65.51
  A 0.30 0.30 0.0 0 0 216.96 65.69
  Z"
/>
<path fill="#1f9be5" d="
  M 355.92 57.75
  Q 361.45 52.04 368.87 54.59
  C 380.19 58.49 380.65 77.22 370.67 82.82
  C 366.07 85.39 359.74 84.92 356.13 80.68
  Q 355.18 79.58 355.27 81.03
  L 355.42 83.53
  Q 355.45 84.01 354.97 84.01
  L 347.01 83.98
  Q 346.30 83.98 346.30 83.26
  L 346.38 45.04
  Q 346.38 44.71 346.71 44.71
  L 355.00 44.65
  Q 355.36 44.64 355.37 45.00
  L 355.38 57.53
  A 0.31 0.31 0.0 0 0 355.92 57.75
  Z
  M 361.8646 76.5797
  A 7.50 6.72 90.5 0 0 368.6497 69.1386
  A 7.50 6.72 90.5 0 0 361.9954 61.5803
  A 7.50 6.72 90.5 0 0 355.2103 69.0214
  A 7.50 6.72 90.5 0 0 361.8646 76.5797
  Z"
/>
<path fill="#1f9be5" d="
  M 133.30 70.47
  L 133.35 83.66
  Q 133.35 84.00 133.01 84.00
  L 124.60 83.98
  Q 124.31 83.98 124.31 83.69
  L 124.37 47.25
  Q 124.37 46.64 124.98 46.65
  Q 132.53 46.78 140.17 46.69
  Q 143.99 46.64 146.89 48.02
  C 156.16 52.43 155.31 65.19 145.90 68.82
  Q 145.02 69.16 145.49 69.96
  L 153.52 83.73
  A 0.16 0.15 74.4 0 1 153.39 83.97
  L 143.70 84.00
  Q 143.48 84.00 143.37 83.81
  L 135.82 70.07
  Q 135.54 69.57 134.98 69.61
  L 134.03 69.68
  Q 133.29 69.74 133.30 70.47
  Z
  M 133.35 54.40
  L 133.37 63.18
  A 0.41 0.41 0.0 0 0 133.78 63.59
  L 139.43 63.58
  A 4.62 3.93 -0.1 0 0 144.04 59.64
  L 144.04 57.90
  A 4.62 3.93 -0.1 0 0 139.41 53.98
  L 133.76 53.99
  A 0.41 0.41 0.0 0 0 133.35 54.40
  Z"
/>
<path fill="#1f9be5" d="
  M 274.88 65.01
  C 278.61 66.55 280.97 69.28 281.17 73.43
  C 281.49 79.85 276.07 83.78 270.09 83.91
  Q 261.45 84.11 251.72 83.96
  A 0.49 0.49 0.0 0 1 251.24 83.47
  L 251.38 47.24
  Q 251.39 46.69 251.94 46.69
  Q 261.05 46.72 269.91 46.74
  C 276.19 46.76 281.02 51.18 280.16 57.81
  Q 279.57 62.36 274.87 64.41
  Q 274.16 64.72 274.88 65.01
  Z
  M 260.34 54.11
  L 260.36 61.35
  A 0.44 0.44 0.0 0 0 260.80 61.79
  L 266.88 61.78
  A 4.16 3.30 -0.1 0 0 271.03 58.47
  L 271.03 56.95
  A 4.16 3.30 -0.1 0 0 266.86 53.66
  L 260.78 53.67
  A 0.44 0.44 0.0 0 0 260.34 54.11
  Z
  M 260.39 68.61
  L 260.35 76.33
  A 0.43 0.43 0.0 0 0 260.78 76.76
  L 267.24 76.80
  A 4.77 4.00 0.3 0 0 272.03 72.82
  L 272.03 72.24
  A 4.77 4.00 0.3 0 0 267.28 68.22
  L 260.82 68.18
  A 0.43 0.43 0.0 0 0 260.39 68.61
  Z"
/>
<path fill="#1da8eb" d="
  M 188.74 76.71
  Q 191.66 76.47 193.08 73.59
  Q 193.20 73.33 193.48 73.33
  L 202.49 73.32
  A 0.21 0.21 0.0 0 1 202.69 73.59
  Q 199.23 84.73 187.52 84.33
  Q 181.56 84.13 177.60 80.12
  C 173.31 75.78 172.59 68.30 174.64 62.86
  C 177.85 54.34 187.89 51.74 195.64 55.47
  Q 200.38 57.75 202.44 63.75
  Q 202.86 64.99 201.55 64.99
  L 193.97 64.99
  Q 193.11 64.99 192.77 64.20
  C 191.87 62.12 189.27 60.93 187.07 61.61
  C 180.48 63.64 181.39 77.31 188.74 76.71
  Z"
/>
<path fill="#1da8eb" d="
  M 306.33 80.57
  Q 299.92 86.71 292.26 83.11
  C 283.75 79.11 282.58 66.63 287.22 59.47
  C 291.32 53.15 300.41 51.69 305.93 57.39
  Q 306.81 58.31 306.83 57.04
  L 306.86 55.03
  Q 306.87 54.42 307.48 54.41
  L 315.30 54.36
  Q 315.99 54.36 315.99 55.05
  L 316.00 83.24
  Q 316.00 83.99 315.26 83.99
  L 307.52 84.00
  Q 306.79 84.00 306.80 83.27
  L 306.85 80.80
  Q 306.86 80.07 306.33 80.57
  Z
  M 300.2606 76.5999
  A 7.52 6.66 90.3 0 0 306.9599 69.1149
  A 7.52 6.66 90.3 0 0 300.3394 61.5601
  A 7.52 6.66 90.3 0 0 293.6401 69.0451
  A 7.52 6.66 90.3 0 0 300.2606 76.5999
  Z"
/>
<path fill="#1da8eb" d="
  M 411.47 69.11
  A 15.51 15.51 0.0 0 1 395.96 84.62
  A 15.51 15.51 0.0 0 1 380.45 69.11
  A 15.51 15.51 0.0 0 1 395.96 53.60
  A 15.51 15.51 0.0 0 1 411.47 69.11
  Z
  M 395.8408 76.6691
  A 7.59 6.37 90.9 0 0 402.3292 69.1801
  A 7.59 6.37 90.9 0 0 396.0792 61.4909
  A 7.59 6.37 90.9 0 0 389.5908 68.9799
  A 7.59 6.37 90.9 0 0 395.8408 76.6691
  Z"
/>
<path fill="#1da8eb" d="
  M 424.37 61.79
  Q 423.53 64.34 426.32 65.14
  Q 430.26 66.28 433.97 67.35
  C 442.80 69.92 442.47 80.39 434.16 83.36
  C 426.96 85.94 416.48 83.69 414.83 74.85
  Q 414.73 74.29 415.29 74.29
  L 422.95 74.32
  Q 423.48 74.32 423.70 74.80
  Q 425.72 79.15 430.71 77.26
  A 2.00 1.99 55.1 0 0 431.31 73.89
  Q 430.29 73.00 428.85 72.66
  C 423.17 71.32 414.29 69.77 415.90 61.48
  Q 416.77 57.05 421.04 55.24
  C 428.70 52.01 438.59 53.98 440.22 63.38
  A 0.52 0.52 0.0 0 1 439.71 63.99
  L 432.72 63.99
  Q 432.22 63.99 432.02 63.54
  Q 430.00 58.97 425.12 60.98
  A 1.32 1.31 88.1 0 0 424.37 61.79
  Z"
/>
<path fill="#1da8eb" d="
  M 466.23 80.55
  C 465.03 81.87 463.52 83.15 461.81 83.67
  C 443.55 89.19 438.44 60.61 452.78 54.87
  Q 460.43 51.81 466.15 57.54
  Q 466.84 58.23 466.85 57.26
  L 466.88 55.00
  Q 466.89 54.38 467.50 54.39
  L 475.32 54.40
  Q 475.99 54.40 475.99 55.07
  L 476.00 83.24
  Q 476.00 83.99 475.26 83.99
  L 467.80 84.00
  Q 466.86 84.00 466.86 83.05
  L 466.86 80.79
  Q 466.86 79.87 466.23 80.55
  Z
  M 460.2738 76.6100
  A 7.52 6.67 90.2 0 0 466.9700 69.1133
  A 7.52 6.67 90.2 0 0 460.3262 61.5700
  A 7.52 6.67 90.2 0 0 453.6300 69.0667
  A 7.52 6.67 90.2 0 0 460.2738 76.6100
  Z"
/>
<path fill="#1f9be5" d="
  M 333.09 58.39
  Q 335.53 54.89 340.70 53.94
  A 0.76 0.76 0.0 0 1 341.60 54.68
  L 341.71 62.81
  Q 341.72 63.52 341.02 63.44
  C 335.94 62.89 332.25 64.63 332.32 70.25
  Q 332.41 77.07 332.40 83.58
  Q 332.40 83.99 331.98 83.99
  L 323.76 83.99
  Q 323.27 83.99 323.27 83.50
  L 323.31 55.28
  Q 323.31 54.37 324.22 54.38
  L 331.57 54.46
  Q 332.60 54.47 332.41 55.49
  Q 332.14 56.94 332.49 58.28
  Q 332.67 58.99 333.09 58.39
  Z"
/>
<rect fill="#1da8eb" x="159.31" y="54.33" width="9.06" height="29.66" rx="0.34"/>
<path fill="#50b8ea" d="
  M 84.01 70.49
  L 92.68 83.06
  Q 93.04 83.58 92.58 84.01
  L 79.48 96.42
  Q 78.86 97.00 79.71 97.00
  L 93.72 97.00
  Q 94.29 97.00 94.70 96.61
  L 108.54 83.61
  Q 109.60 82.98 110.34 83.85
  Q 110.65 84.22 111.12 84.16
  Q 112.18 84.02 112.93 84.49
  Q 113.01 98.20 113.01 111.83
  Q 113.01 118.24 112.05 120.25
  C 110.37 123.78 106.65 126.05 102.69 126.04
  Q 64.67 125.95 27.85 126.02
  C 23.40 126.03 19.28 123.89 17.76 119.69
  Q 17.02 117.62 17.01 113.66
  Q 16.99 97.59 17.04 81.55
  Q 17.50 82.65 18.49 81.59
  Q 18.83 81.23 19.33 81.26
  L 24.85 81.67
  L 23.35 83.15
  Q 22.96 83.53 23.28 83.98
  L 32.06 96.50
  Q 32.41 97.00 33.02 97.00
  L 47.02 97.00
  Q 47.82 97.00 47.36 96.35
  L 38.73 84.02
  Q 38.41 83.57 38.81 83.19
  L 48.45 74.08
  L 64.97 74.67
  L 53.44 102.83
  A 0.12 0.12 0.0 0 0 53.55 102.99
  L 60.01 103.02
  Q 60.30 103.02 60.41 102.75
  L 72.96 72.21
  Q 80.72 73.04 84.01 70.49
  Z"
/>
<rect fill="#080a08" x="185.50" y="97.25" width="1.00" height="17.82" rx="0.46"/>
<path fill="#080a08" d="
  M 125.98 98.72
  A 0.52 0.52 0.0 0 1 126.50 98.20
  L 131.76 98.22
  A 7.78 7.46 0.2 0 1 139.51 105.70
  L 139.51 107.58
  A 7.78 7.46 0.2 0 1 131.70 115.02
  L 126.44 115.00
  A 0.52 0.52 0.0 0 1 125.92 114.48
  L 125.98 98.72
  Z
  M 127.06 99.46
  L 127.02 113.62
  A 0.40 0.40 0.0 0 0 127.41 114.02
  L 131.61 114.04
  A 6.86 6.81 0.2 0 0 138.50 107.25
  L 138.50 105.91
  A 6.86 6.81 0.2 0 0 131.67 99.08
  L 127.47 99.06
  A 0.40 0.40 0.0 0 0 127.06 99.46
  Z"
/>
<path fill="#080a08" d="
  M 144.95 109.04
  Q 142.67 109.04 143.75 111.05
  L 144.15 111.78
  A 4.71 4.70 -11.3 0 0 147.85 114.24
  Q 151.90 114.62 153.60 110.99
  Q 153.85 110.45 154.28 110.86
  L 154.46 111.04
  A 0.36 0.36 0.0 0 1 154.53 111.47
  Q 151.46 116.88 145.93 114.66
  Q 143.78 113.79 142.84 111.41
  C 141.06 106.86 143.39 101.80 148.68 101.76
  Q 152.33 101.73 153.96 105.00
  Q 154.14 105.36 154.47 106.02
  Q 155.98 109.05 152.60 109.05
  L 144.95 109.04
  Z
  M 143.71 107.98
  L 153.47 107.92
  A 0.25 0.25 0.0 0 0 153.72 107.67
  L 153.72 107.53
  A 4.87 4.81 -0.3 0 0 148.83 102.75
  L 148.31 102.75
  A 4.87 4.81 -0.3 0 0 143.46 107.59
  L 143.46 107.73
  A 0.25 0.25 0.0 0 0 143.71 107.98
  Z"
/>
<path fill="#080a08" d="
  M 170.99 109.62
  C 171.29 113.48 175.07 115.27 178.49 113.72
  Q 179.93 113.07 181.29 110.78
  Q 181.44 110.53 181.71 110.67
  L 181.98 110.82
  Q 182.05 110.86 182.03 110.94
  Q 181.33 113.52 179.02 114.62
  C 169.45 119.15 165.35 102.15 176.20 101.78
  Q 179.78 101.65 181.41 104.85
  Q 181.86 105.73 181.98 105.96
  Q 183.56 109.05 180.09 109.04
  L 171.53 109.04
  Q 170.95 109.04 170.99 109.62
  Z
  M 171.13 107.93
  L 181.09 107.99
  A 0.16 0.16 0.0 0 0 181.25 107.83
  L 181.25 107.77
  A 5.00 4.92 -89.7 0 0 176.35 102.74
  L 175.91 102.74
  A 5.00 4.92 -89.7 0 0 170.97 107.71
  L 170.97 107.77
  A 0.16 0.16 0.0 0 0 171.13 107.93
  Z"
/>
<path fill="#080a08" d="
  M 195.7812 115.2658
  A 6.80 6.52 93.7 0 1 189.7136 108.0592
  A 6.80 6.52 93.7 0 1 196.6588 101.6942
  A 6.80 6.52 93.7 0 1 202.7264 108.9008
  A 6.80 6.52 93.7 0 1 195.7812 115.2658
  Z
  M 201.46 107.56
  A 4.76 4.76 0.0 0 0 196.70 102.80
  L 195.82 102.80
  A 4.76 4.76 0.0 0 0 191.06 107.56
  L 191.06 109.44
  A 4.76 4.76 0.0 0 0 195.82 114.20
  L 196.70 114.20
  A 4.76 4.76 0.0 0 0 201.46 109.44
  L 201.46 107.56
  Z"
/>
<path fill="#080a08" d="
  M 207.03 112.76
  L 207.05 121.02
  Q 207.05 121.17 206.92 121.23
  L 206.69 121.34
  A 0.52 0.51 76.6 0 1 205.95 120.88
  L 205.94 102.25
  Q 205.94 101.94 206.25 101.95
  L 206.78 101.96
  Q 207.09 101.97 207.08 102.28
  L 207.02 104.22
  Q 207.00 104.91 207.44 104.39
  Q 211.45 99.73 216.28 103.01
  Q 218.72 104.66 218.81 108.08
  Q 218.96 113.50 214.21 115.01
  C 211.60 115.85 209.14 114.71 207.58 112.58
  Q 207.03 111.83 207.03 112.76
  Z
  M 212.4402 114.3000
  A 5.82 5.42 89.9 0 0 217.8500 108.4705
  A 5.82 5.42 89.9 0 0 212.4198 102.6600
  A 5.82 5.42 89.9 0 0 207.0100 108.4895
  A 5.82 5.42 89.9 0 0 212.4402 114.3000
  Z"
/>
<path fill="#080a08" d="
  M 222.96 109.72
  C 223.64 114.39 228.36 115.56 231.89 112.82
  Q 232.39 112.44 232.56 111.84
  Q 232.74 111.24 233.25 110.80
  Q 233.89 110.24 233.89 111.09
  C 233.87 114.10 229.16 115.77 226.88 115.14
  Q 221.23 113.58 221.85 107.50
  Q 222.41 102.01 228.17 101.77
  Q 231.74 101.62 233.39 104.80
  Q 233.75 105.51 234.04 106.07
  Q 235.58 109.05 232.22 109.05
  L 223.54 109.04
  Q 222.86 109.04 222.96 109.72
  Z
  M 223.17 107.93
  L 233.03 107.99
  A 0.20 0.20 0.0 0 0 233.23 107.79
  L 233.23 107.70
  A 4.94 4.93 0.3 0 0 228.31 102.74
  L 227.93 102.74
  A 4.94 4.93 0.3 0 0 222.97 107.64
  L 222.97 107.73
  A 0.20 0.20 0.0 0 0 223.17 107.93
  Z"
/>
<path fill="#080a08" d="
  M 238.96 103.67
  Q 240.39 101.86 242.76 101.68
  Q 243.21 101.65 243.43 102.03
  Q 243.47 102.09 243.46 102.15
  Q 243.41 102.47 243.10 102.56
  C 240.96 103.16 238.64 103.98 238.56 106.62
  Q 238.44 110.48 238.52 114.68
  Q 238.53 115.03 238.18 115.03
  L 237.76 115.03
  Q 237.50 115.02 237.50 114.76
  L 237.50 102.72
  Q 237.50 102.32 237.77 102.02
  Q 237.93 101.85 238.12 101.91
  Q 238.30 101.96 238.36 102.13
  Q 238.60 102.75 238.54 103.50
  Q 238.47 104.30 238.96 103.67
  Z"
/>
<path fill="#080a08" d="
  M 167.41 101.92
  L 168.01 102.03
  A 0.26 0.26 0.0 0 1 168.20 102.39
  L 162.60 115.71
  A 0.26 0.26 0.0 0 1 162.12 115.71
  L 156.54 102.32
  A 0.26 0.26 0.0 0 1 156.78 101.96
  L 157.41 101.97
  A 0.26 0.26 0.0 0 1 157.65 102.13
  L 162.15 113.14
  A 0.26 0.26 0.0 0 0 162.63 113.14
  L 167.12 102.08
  A 0.26 0.26 0.0 0 1 167.41 101.92
  Z"
/>
</svg>
